<svg xmlns="http://www.w3.org/2000/svg" viewBox="0 0 800 600">
  <!-- Background -->
  <rect width="800" height="600" fill="#f8f9fa" />
  <text x="400" y="30" font-family="Arial" font-size="22" text-anchor="middle" fill="#343a40">YAML-Like Anchors and Aliases as Cognitive References</text>
  
  <!-- YAML Structure with Anchors and Aliases -->
  <rect x="50" y="70" width="700" height="480" rx="10" ry="10" fill="#e9ecef" stroke="#343a40" stroke-width="2" />
  
  <!-- Anchor Definitions -->
  <rect x="80" y="100" width="280" height="40" rx="5" ry="5" fill="#fff" stroke="#28a745" stroke-width="2" />
  <text x="220" y="125" font-family="Courier New" font-size="16" text-anchor="middle" fill="#28a745">&amp;understanding "understanding"</text>
  
  <rect x="80" y="150" width="280" height="40" rx="5" ry="5" fill="#fff" stroke="#28a745" stroke-width="2" />
  <text x="220" y="175" font-family="Courier New" font-size="16" text-anchor="middle" fill="#28a745">&amp;analysis "analysis"</text>
  
  <rect x="80" y="200" width="280" height="40" rx="5" ry="5" fill="#fff" stroke="#28a745" stroke-width="2" />
  <text x="220" y="225" font-family="Courier New" font-size="16" text-anchor="middle" fill="#28a745">&amp;exploration "exploration"</text>
  
  <rect x="80" y="250" width="280" height="40" rx="5" ry="5" fill="#fff" stroke="#28a745" stroke-width="2" />
  <text x="220" y="275" font-family="Courier New" font-size="16" text-anchor="middle" fill="#28a745">&amp;reflection "reflection"</text>
  
  <rect x="80" y="300" width="280" height="40" rx="5" ry="5" fill="#fff" stroke="#28a745" stroke-width="2" />
  <text x="220" y="325" font-family="Courier New" font-size="16" text-anchor="middle" fill="#28a745">&amp;meta_observation "meta_observation"</text>
  
  <!-- Recursive Structure -->
  <rect x="420" y="100" width="300" height="400" rx="5" ry="5" fill="#fff" stroke="#6c757d" stroke-width="2" />
  <text x="570" y="125" font-family="Courier New" font-size="16" text-anchor="middle" fill="#343a40">recursive_structure:</text>
  
  <!-- Reference Usages -->
  <rect x="440" y="140" width="260" height="30" rx="3" ry="3" fill="#fff" stroke="#dc3545" stroke-width="2" />
  <text x="570" y="160" font-family="Courier New" font-size="14" text-anchor="middle" fill="#dc3545">- *understanding:</text>
  
  <rect x="460" y="175" width="240" height="25" rx="3" ry="3" fill="#fff" stroke="#6c757d" stroke-width="1" />
  <text x="580" y="192" font-family="Courier New" font-size="12" text-anchor="middle" fill="#6c757d">overview: "Embrace the unknown"</text>
  
  <rect x="460" y="205" width="240" height="30" rx="3" ry="3" fill="#fff" stroke="#dc3545" stroke-width="2" />
  <text x="580" y="225" font-family="Courier New" font-size="14" text-anchor="middle" fill="#dc3545">- *analysis:</text>
  
  <rect x="480" y="240" width="220" height="25" rx="3" ry="3" fill="#fff" stroke="#6c757d" stroke-width="1" />
  <text x="590" y="257" font-family="Courier New" font-size="12" text-anchor="middle" fill="#6c757d">breakdown: [...]</text>
  
  <rect x="480" y="270" width="220" height="30" rx="3" ry="3" fill="#fff" stroke="#dc3545" stroke-width="2" />
  <text x="590" y="290" font-family="Courier New" font-size="14" text-anchor="middle" fill="#dc3545">- *exploration:</text>
  
  <rect x="500" y="305" width="200" height="25" rx="3" ry="3" fill="#fff" stroke="#6c757d" stroke-width="1" />
  <text x="600" y="322" font-family="Courier New" font-size="12" text-anchor="middle" fill="#6c757d">concepts: [...]</text>
  
  <rect x="500" y="335" width="200" height="30" rx="3" ry="3" fill="#fff" stroke="#dc3545" stroke-width="2" />
  <text x="600" y="355" font-family="Courier New" font-size="14" text-anchor="middle" fill="#dc3545">- *reflection:</text>
  
  <rect x="520" y="370" width="180" height="25" rx="3" ry="3" fill="#fff" stroke="#6c757d" stroke-width="1" />
  <text x="610" y="387" font-family="Courier New" font-size="12" text-anchor="middle" fill="#6c757d">insights: [...]</text>
  
  <rect x="520" y="400" width="180" height="30" rx="3" ry="3" fill="#fff" stroke="#dc3545" stroke-width="2" />
  <text x="610" y="420" font-family="Courier New" font-size="14" text-anchor="middle" fill="#dc3545">- *meta_observation:</text>
  
  <rect x="540" y="435" width="160" height="25" rx="3" ry="3" fill="#fff" stroke="#6c757d" stroke-width="1" />
  <text x="620" y="452" font-family="Courier New" font-size="12" text-anchor="middle" fill="#6c757d">process: "..."</text>
  
  <!-- Connection Lines -->
  <path d="M 362 120 C 380 120 400 120 418 150" stroke="#28a745" stroke-width="2" fill="none" />
  <path d="M 362 170 C 380 170 400 170 418 220" stroke="#28a745" stroke-width="2" fill="none" />
  <path d="M 362 220 C 380 220 400 220 418 285" stroke="#28a745" stroke-width="2" fill="none" />
  <path d="M 362 270 C 380 270 400 270 418 350" stroke="#28a745" stroke-width="2" fill="none" />
  <path d="M 362 320 C 380 320 400 320 418 415" stroke="#28a745" stroke-width="2" fill="none" />
  
  <!-- Legend -->
  <rect x="80" y="500" width="200" height="30" rx="5" ry="5" fill="#fff" stroke="#28a745" stroke-width="2" />
  <text x="180" y="520" font-family="Arial" font-size="14" text-anchor="middle" fill="#28a745">Anchor (Definition)</text>
  
  <rect x="300" y="500" width="200" height="30" rx="5" ry="5" fill="#fff" stroke="#dc3545" stroke-width="2" />
  <text x="400" y="520" font-family="Arial" font-size="14" text-anchor="middle" fill="#dc3545">Alias (Reference)</text>
  
  <text x="400" y="560" font-family="Arial" font-size="16" text-anchor="middle" fill="#343a40">Anchors define reusable concepts, Aliases reference them</text>
</svg>
