<svg xmlns="http://www.w3.org/2000/svg" viewBox="0 0 900 700">
  <!-- Background with subtle grid -->
  <rect width="900" height="700" fill="#f8f9fa" />
  <pattern id="smallGrid" width="10" height="10" patternUnits="userSpaceOnUse">
    <path d="M 10 0 L 0 0 0 10" fill="none" stroke="#e9ecef" stroke-width="0.5"/>
  </pattern>
  <rect width="900" height="700" fill="url(#smallGrid)" />
  
  <text x="450" y="35" font-family="Arial" font-size="24" text-anchor="middle" fill="#343a40" font-weight="bold">Cross-Domain Integration: Cognitive-Computational-Representational Isomorphisms</text>
  
  <!-- Three Domain Circles - Venn Diagram -->
  <!-- Computational Domain -->
  <circle id="computational-domain" cx="380" cy="300" r="200" fill="#4dabf733" stroke="#4dabf7" stroke-width="2" />
  <text x="380" y="160" font-family="Arial" font-size="20" text-anchor="middle" fill="#343a40" font-weight="bold">Computational Domain</text>
  
  <!-- Cognitive Domain -->
  <circle id="cognitive-domain" cx="520" cy="300" r="200" fill="#20c99733" stroke="#20c997" stroke-width="2" />
  <text x="520" y="160" font-family="Arial" font-size="20" text-anchor="middle" fill="#343a40" font-weight="bold">Cognitive Domain</text>
  
  <!-- Representational Domain -->
  <circle id="representational-domain" cx="450" cy="440" r="200" fill="#e83e8c33" stroke="#e83e8c" stroke-width="2" />
  <text x="450" y="620" font-family="Arial" font-size="20" text-anchor="middle" fill="#343a40" font-weight="bold">Representational Domain</text>
  
  <!-- Domain-Specific Elements -->
  
  <!-- Computational Elements -->
  <g transform="translate(250, 250)">
    <!-- Code Structure -->
    <rect x="0" y="0" width="120" height="120" rx="10" ry="10" fill="#4dabf720" stroke="#4dabf7" stroke-width="2" />
    <text x="60" y="-10" font-family="Arial" font-size="14" text-anchor="middle" fill="#4dabf7" font-weight="bold">Mojo Structures</text>
    
    <!-- Recursive Function -->
    <rect x="20" y="20" width="80" height="30" rx="5" ry="5" fill="white" stroke="#4dabf7" stroke-width="1" />
    <text x="60" y="40" font-family="Courier New" font-size="12" text-anchor="middle" fill="#4dabf7">ThoughtNode</text>
    
    <!-- Cache -->
    <rect x="20" y="60" width="80" height="30" rx="5" ry="5" fill="white" stroke="#4dabf7" stroke-width="1" />
    <text x="60" y="80" font-family="Courier New" font-size="12" text-anchor="middle" fill="#4dabf7">memoCache</text>
    
    <!-- Arrow to itself (recursion) -->
    <path d="M 100 20 C 120 10 130 40 100 45" stroke="#4dabf7" stroke-width="1.5" fill="none" marker-end="url(#arrowhead)" />
  </g>
  
  <!-- Cognitive Elements -->
  <g transform="translate(550, 250)">
    <!-- Brain Structure -->
    <ellipse cx="50" cy="60" rx="70" ry="60" fill="#20c99720" stroke="#20c997" stroke-width="2" />
    <text x="50" y="-10" font-family="Arial" font-size="14" text-anchor="middle" fill="#20c997" font-weight="bold">Neural Processes</text>
    
    <!-- Working Memory -->
    <ellipse cx="30" cy="40" rx="25" ry="20" fill="white" stroke="#20c997" stroke-width="1" />
    <text x="30" y="44" font-family="Arial" font-size="10" text-anchor="middle" fill="#20c997">Working Memory</text>
    
    <!-- Long-term Memory -->
    <ellipse cx="70" cy="75" rx="25" ry="20" fill="white" stroke="#20c997" stroke-width="1" />
    <text x="70" y="79" font-family="Arial" font-size="10" text-anchor="middle" fill="#20c997">Long-term Memory</text>
    
    <!-- Recursive Thought -->
    <path d="M 55 40 C 90 30 95 60 60 75" stroke="#20c997" stroke-width="1.5" fill="none" marker-end="url(#arrowhead)" />
    <text x="90" y="55" font-family="Arial" font-size="10" text-anchor="middle" fill="#20c997">Meta-cognition</text>
  </g>
  
  <!-- Representational Elements -->
  <g transform="translate(420, 450)">
    <!-- YAML Document -->
    <rect x="-60" y="-20" width="120" height="120" rx="5" ry="5" fill="#e83e8c20" stroke="#e83e8c" stroke-width="2" />
    <text x="0" y="-30" font-family="Arial" font-size="14" text-anchor="middle" fill="#e83e8c" font-weight="bold">YAML Structures</text>
    
    <!-- Anchors -->
    <rect x="-40" y="10" width="80" height="25" rx="5" ry="5" fill="white" stroke="#e83e8c" stroke-width="1" />
    <text x="0" y="27" font-family="Courier New" font-size="12" text-anchor="middle" fill="#e83e8c">&amp;anchor</text>
    
    <!-- References -->
    <rect x="-40" y="45" width="80" height="25" rx="5" ry="5" fill="white" stroke="#e83e8c" stroke-width="1" />
    <text x="0" y="62" font-family="Courier New" font-size="12" text-anchor="middle" fill="#e83e8c">*reference</text>
    
    <!-- Recursive Structure -->
    <path d="M 40 20 C 60 30 60 60 40 70" stroke="#e83e8c" stroke-width="1.5" fill="none" marker-end="url(#arrowhead)" />
  </g>
  
  <!-- Integration Points - Central Area -->
  <circle cx="450" cy="350" r="100" fill="#ffc10740" stroke="#ffc107" stroke-width="3" stroke-dasharray="5,5" />
  <text x="450" y="320" font-family="Arial" font-size="18" text-anchor="middle" fill="#343a40" font-weight="bold">Integration</text>
  <text x="450" y="345" font-family="Arial" font-size="16" text-anchor="middle" fill="#343a40">Isomorphic</text>
  <text x="450" y="365" font-family="Arial" font-size="16" text-anchor="middle" fill="#343a40">Structures</text>
  
  <!-- Cross-Domain Isomorphisms -->
  <!-- Computational to Cognitive -->
  <line x1="350" y1="275" x2="400" y2="320" stroke="#6610f2" stroke-width="2" stroke-dasharray="5,3" />
  <text x="360" y="290" font-family="Arial" font-size="12" text-anchor="middle" fill="#6610f2" transform="rotate(-30 360 290)">Memory ↔ Cache</text>
  
  <!-- Computational to Representational -->
  <line x1="350" y1="340" x2="400" y2="370" stroke="#6610f2" stroke-width="2" stroke-dasharray="5,3" />
  <text x="360" y="365" font-family="Arial" font-size="12" text-anchor="middle" fill="#6610f2" transform="rotate(30 360 365)">Pointer ↔ Reference</text>
  
  <!-- Cognitive to Representational -->
  <line x1="500" y1="390" x2="550" y2="340" stroke="#6610f2" stroke-width="2" stroke-dasharray="5,3" />
  <text x="540" y="375" font-family="Arial" font-size="12" text-anchor="middle" fill="#6610f2" transform="rotate(-30 540 375)">Chunking ↔ Anchors</text>
  
  <!-- Future Integration Potentials -->
  <!-- Markers for Potential Integration Points -->
  <!-- Computational-Cognitive Integration -->
  <circle cx="450" cy="245" r="15" fill="white" stroke="#fd7e14" stroke-width="2" />
  <text x="450" y="250" font-family="Arial" font-size="20" text-anchor="middle" fill="#fd7e14" font-weight="bold">A</text>
  
  <!-- Computational-Representational Integration -->
  <circle cx="380" cy="400" r="15" fill="white" stroke="#fd7e14" stroke-width="2" />
  <text x="380" y="405" font-family="Arial" font-size="20" text-anchor="middle" fill="#fd7e14" font-weight="bold">B</text>
  
  <!-- Cognitive-Representational Integration -->
  <circle cx="520" cy="400" r="15" fill="white" stroke="#fd7e14" stroke-width="2" />
  <text x="520" y="405" font-family="Arial" font-size="20" text-anchor="middle" fill="#fd7e14" font-weight="bold">C</text>
  
  <!-- Full Three-Domain Integration -->
  <circle cx="450" cy="350" r="25" fill="white" stroke="#fd7e14" stroke-width="3" />
  <text x="450" y="358" font-family="Arial" font-size="26" text-anchor="middle" fill="#fd7e14" font-weight="bold">D</text>
  
  <!-- Legend for Integration Points -->
  <rect x="650" y="320" width="220" height="140" rx="10" ry="10" fill="white" stroke="#343a40" stroke-width="1" />
  <text x="760" y="345" font-family="Arial" font-size="16" text-anchor="middle" fill="#343a40" font-weight="bold">Integration Potentials</text>
  
  <circle cx="670" cy="370" r="10" fill="white" stroke="#fd7e14" stroke-width="2" />
  <text x="670" y="374" font-family="Arial" font-size="14" text-anchor="middle" fill="#fd7e14" font-weight="bold">A</text>
  <text x="790" y="374" font-family="Arial" font-size="12" text-anchor="middle" fill="#343a40">Neural-Inspired Algorithms</text>
  
  <circle cx="670" cy="395" r="10" fill="white" stroke="#fd7e14" stroke-width="2" />
  <text x="670" y="399" font-family="Arial" font-size="14" text-anchor="middle" fill="#fd7e14" font-weight="bold">B</text>
  <text x="790" y="399" font-family="Arial" font-size="12" text-anchor="middle" fill="#343a40">Executable Knowledge Graphs</text>
  
  <circle cx="670" cy="420" r="10" fill="white" stroke="#fd7e14" stroke-width="2" />
  <text x="670" y="424" font-family="Arial" font-size="14" text-anchor="middle" fill="#fd7e14" font-weight="bold">C</text>
  <text x="790" y="424" font-family="Arial" font-size="12" text-anchor="middle" fill="#343a40">Cognitive YAML Processing</text>
  
  <circle cx="670" cy="445" r="15" fill="white" stroke="#fd7e14" stroke-width="2" />
  <text x="670" y="450" font-family="Arial" font-size="18" text-anchor="middle" fill="#fd7e14" font-weight="bold">D</text>
  <text x="790" y="450" font-family="Arial" font-size="12" text-anchor="middle" fill="#343a40">Recursive Meta-Cognitive CCT</text>
  
  <!-- Meta-Layer -->
  <rect x="100" y="70" width="220" height="120" rx="10" ry="10" fill="white" stroke="#343a40" stroke-width="1" />
  <text x="210" y="95" font-family="Arial" font-size="16" text-anchor="middle" fill="#343a40" font-weight="bold">Structural Isomorphisms</text>
  
  <line x1="120" y1="115" x2="300" y2="115" stroke="#343a40" stroke-width="1" />
  <text x="140" y="135" font-family="Arial" font-size="12" text-anchor="left" fill="#6610f2">• Recursive Self-Reference</text>
  <text x="140" y="155" font-family="Arial" font-size="12" text-anchor="left" fill="#6610f2">• Compression/Chunking</text>
  <text x="140" y="175" font-family="Arial" font-size="12" text-anchor="left" fill="#6610f2">• Meta-Observational Capacity</text>
  
  <!-- Arrow Marker Definition -->
  <defs>
    <marker id="arrowhead" markerWidth="10" markerHeight="7" refX="10" refY="3.5" orient="auto">
      <polygon points="0 0, 10 3.5, 0 7" fill="#343a40" />
    </marker>
  </defs>
  
  <!-- Meta-Cognitive Observation Loop -->
  <path d="M 450 100 C 700 100 700 600 450 600 C 200 600 200 100 450 100" stroke="#6f42c1" stroke-width="2" fill="none" stroke-dasharray="10,5" />
  <text x="750" y="190" font-family="Arial" font-size="16" text-anchor="middle" fill="#6f42c1" font-weight="bold">Meta-Cognitive</text>
  <text x="750" y="210" font-family="Arial" font-size="16" text-anchor="middle" fill="#6f42c1" font-weight="bold">Observation Loop</text>
  <path d="M 730 220 L 680 260" stroke="#6f42c1" stroke-width="2" fill="none" marker-end="url(#arrowhead)" />
  
  <!-- Implementation Layers -->
  <rect x="100" y="500" width="700" height="90" rx="10" ry="10" fill="white" stroke="#343a40" stroke-width="1" />
  <text x="450" y="525" font-family="Arial" font-size="16" text-anchor="middle" fill="#343a40" font-weight="bold">Implementation Progression</text>
  
  <!-- Implementation Timeline -->
  <line x1="150" y1="560" x2="750" y2="560" stroke="#343a40" stroke-width="2" />
  
  <!-- Stage Markers -->
  <circle cx="200" cy="560" r="8" fill="#dc3545" />
  <text x="200" y="580" font-family="Arial" font-size="12" text-anchor="middle" fill="#343a40">Domain Modeling</text>
  
  <circle cx="325" cy="560" r="8" fill="#fd7e14" />
  <text x="325" y="580" font-family="Arial" font-size="12" text-anchor="middle" fill="#343a40">Structure Mapping</text>
  
  <circle cx="450" cy="560" r="8" fill="#28a745" />
  <text x="450" y="580" font-family="Arial" font-size="12" text-anchor="middle" fill="#343a40">Isomorphism Identification</text>
  
  <circle cx="575" cy="560" r="8" fill="#007bff" />
  <text x="575" y="580" font-family="Arial" font-size="12" text-anchor="middle" fill="#343a40">Integration Development</text>
  
  <circle cx="700" cy="560" r="8" fill="#6f42c1" />
  <text x="700" y="580" font-family="Arial" font-size="12" text-anchor="middle" fill="#343a40">Meta-System Emergence</text>
</svg>
